<?xml version="1.0" standalone="no"?>
<!DOCTYPE svg PUBLIC "-//W3C//DTD SVG 20010904//EN"
 "http://www.w3.org/TR/2001/REC-SVG-20010904/DTD/svg10.dtd">
<svg version="1.0" xmlns="http://www.w3.org/2000/svg"
 width="207.000000pt" height="207.000000pt" viewBox="0 0 207.000000 207.000000"
 preserveAspectRatio="xMidYMid meet">
<metadata>
Created by potrace 1.11, written by Peter Selinger 2001-2013
</metadata>
<g transform="translate(0.000000,207.000000) scale(0.100000,-0.100000)"
fill="#000000" stroke="none">
<path d="M685 1497 c-29 -22 -23 -82 23 -221 55 -164 45 -209 -49 -222 -37 -5
-60 -1 -112 20 -80 32 -111 33 -154 4 -70 -48 -101 -186 -66 -301 25 -82 70
-117 200 -156 133 -40 163 -38 240 15 47 32 57 36 78 26 14 -7 33 -27 42 -47
13 -27 25 -36 51 -41 51 -10 116 3 179 34 50 25 92 38 185 57 10 1 31 -11 48
-28 l31 -32 187 -2 c119 -2 197 1 214 8 49 20 48 54 -2 209 -17 49 -30 103
-30 120 0 46 -25 97 -52 106 -12 4 -61 9 -108 10 -47 1 -89 2 -93 3 -17 2 -39
78 -43 150 -10 172 -30 228 -94 261 -47 24 -132 26 -215 3 -71 -18 -131 -16
-232 8 -120 29 -202 35 -228 16z"/>
</g>
</svg>
